<?xml version="1.0" standalone="no"?>
<!DOCTYPE svg PUBLIC "-//W3C//DTD SVG 20010904//EN"
 "http://www.w3.org/TR/2001/REC-SVG-20010904/DTD/svg10.dtd">
<svg version="1.0" xmlns="http://www.w3.org/2000/svg"
 width="104.000000pt" height="104.000000pt" viewBox="0 0 104.000000 104.000000"
 preserveAspectRatio="xMidYMid meet">
<metadata>
Created by potrace 1.11, written by Peter Selinger 2001-2013
</metadata>
<g transform="translate(0.000000,104.000000) scale(0.100000,-0.100000)"
fill="#000000" stroke="none">
<path d="M150 872 c-31 -10 -50 -36 -50 -69 0 -20 4 -32 10 -28 5 3 7 0 5 -8
-8 -19 27 -47 68 -54 50 -8 89 31 85 84 -2 36 -21 65 -45 70 -41 8 -60 10 -73
5z"/>
<path d="M388 749 c-2 -74 -1 -140 1 -146 3 -14 126 -19 134 -5 4 6 17 91 19
130 1 6 14 12 29 12 24 0 27 -4 31 -42 2 -24 4 -122 4 -218 l-1 -175 -30 -3
c-41 -5 -46 -12 -49 -66 -3 -57 4 -68 40 -68 16 1 97 3 179 5 l150 4 3 71 c3
77 6 73 -50 76 -9 1 -20 5 -24 9 -10 9 -14 380 -5 395 6 10 31 15 67 13 19 -1
21 -8 23 -73 1 -40 3 -74 4 -75 2 -1 24 -4 49 -6 72 -7 79 7 77 139 -3 146 -1
144 -166 144 -71 0 -208 3 -305 7 l-177 5 -3 -133z m232 89 c-54 -48 -73 -59
-33 -20 23 23 46 42 50 42 4 0 -4 -10 -17 -22z m-132 -32 c-27 -24 -53 -57
-60 -73 -11 -26 -12 -27 -15 -6 -3 16 6 31 31 54 20 17 34 36 33 42 -1 7 6 11
15 9 9 -1 19 2 23 8 3 5 9 10 13 10 4 0 -14 -20 -40 -44z m183 0 c-50 -38 -56
-41 -37 -18 25 29 11 28 -31 -4 -18 -14 -33 -21 -33 -17 1 4 24 24 52 44 38
26 55 33 64 25 8 -8 4 -16 -15 -30z m76 16 c-15 -16 -25 -31 -22 -34 3 -3 -3
-11 -12 -19 -16 -13 -17 -12 -4 4 19 24 6 21 -37 -9 l-37 -26 35 29 c19 15 48
40 65 55 39 36 46 36 12 0z m83 25 c0 -1 -13 -15 -30 -30 -16 -16 -30 -26 -30
-22 0 3 12 17 26 30 25 23 34 29 34 22z m5 -32 c-22 -19 -35 -35 -29 -35 6 0
29 16 53 36 23 20 44 34 47 31 3 -2 -19 -24 -48 -48 -29 -24 -62 -51 -73 -61
-11 -10 -44 -36 -73 -59 -29 -23 -51 -44 -48 -47 3 -2 27 12 53 33 66 53 84
63 46 26 -40 -38 -42 -49 -5 -26 25 16 24 15 -6 -15 -18 -18 -36 -30 -39 -26
-4 4 -1 11 7 16 8 6 10 10 4 10 -6 0 -28 -15 -49 -34 -38 -34 -55 -38 -51 -13
1 10 68 76 95 94 2 2 1 6 -2 9 -4 4 -25 -10 -48 -30 -22 -21 -44 -35 -47 -31
-4 4 6 16 21 27 16 12 24 24 19 27 -5 3 4 16 19 29 20 16 27 19 23 8 -10 -26
1 -19 81 49 42 36 80 65 83 65 4 -1 -11 -16 -33 -35z m-267 11 c-2 0 -23 -19
-48 -41 l-45 -40 34 38 c19 20 32 37 27 37 -4 0 -5 4 -1 10 3 5 12 7 21 3 8
-3 13 -6 12 -7z m393 1 c-6 -8 -7 -18 -3 -22 4 -5 1 -5 -6 -1 -10 6 -10 11 -1
22 6 8 14 14 16 14 3 0 0 -6 -6 -13z m19 -67 c-43 -38 -48 -58 -6 -22 l21 17
-20 -23 c-23 -28 -63 -52 -49 -30 5 7 9 18 9 25 0 11 71 73 84 73 3 0 -15 -18
-39 -40z m-220 26 c0 -2 -8 -10 -17 -17 -16 -13 -17 -12 -4 4 13 16 21 21 21
13z m-271 -62 c-13 -14 -33 -30 -44 -35 -11 -6 -2 6 19 26 46 41 60 46 25 9z
m291 -77 c0 -2 -10 -12 -22 -23 l-23 -19 19 23 c18 21 26 27 26 19z m-96 -58
c-16 -17 -38 -35 -49 -41 -11 -6 -2 8 20 31 21 22 43 41 49 41 5 0 -3 -14 -20
-31z m46 17 c0 -2 -8 -10 -17 -17 -16 -13 -17 -12 -4 4 13 16 21 21 21 13z
m60 -9 c0 -2 -12 -14 -27 -28 l-28 -24 24 28 c23 25 31 32 31 24z m-56 -19
c-3 -7 -17 -22 -32 -32 -27 -19 -27 -19 2 12 32 35 38 38 30 20z m-83 -48
c-13 -11 -18 -20 -12 -20 16 0 14 -17 -3 -23 -21 -8 -14 30 9 47 29 22 34 19
6 -4z m79 -13 c0 -2 -10 -12 -22 -23 l-23 -19 19 23 c18 21 26 27 26 19z m-50
-40 c0 -2 -12 -14 -27 -28 l-28 -24 24 28 c23 25 31 32 31 24z m60 -77 c0 -5
-5 -10 -11 -10 -5 0 -7 5 -4 10 3 6 8 10 11 10 2 0 4 -4 4 -10z m15 -48 c-22
-20 -51 -45 -65 -55 -14 -9 -52 -37 -85 -62 -32 -24 -61 -42 -64 -39 -3 2 4
11 15 18 10 8 66 50 124 94 58 44 107 81 110 81 3 0 -13 -16 -35 -37z m-105 4
c0 -2 -8 -10 -17 -17 -16 -13 -17 -12 -4 4 13 16 21 21 21 13z m80 -49 c0 -2
-10 -12 -22 -23 l-23 -19 19 23 c18 21 26 27 26 19z m110 -22 c-7 -9 -15 -13
-19 -10 -3 3 1 10 9 15 21 14 24 12 10 -5z m-75 -31 c-34 -29 -91 -69 -75 -51
12 13 105 86 110 86 3 0 -13 -16 -35 -35z m-211 11 c-4 -8 -8 -15 -10 -15 -2
0 -4 7 -4 15 0 8 4 15 10 15 5 0 7 -7 4 -15z m196 12 c0 -2 -10 -12 -22 -23
l-23 -19 19 23 c18 21 26 27 26 19z m-177 -31 c-15 -13 -30 -23 -32 -20 -5 4
41 43 52 44 4 0 -5 -11 -20 -24z m106 11 c-2 -2 -25 -20 -50 -40 -25 -20 -49
-34 -52 -31 -7 7 95 85 102 78 2 -2 2 -5 0 -7z m11 -32 c-7 -8 -17 -15 -23
-15 -6 0 -2 7 9 15 25 19 30 19 14 0z m150 1 c0 -2 -8 -10 -17 -17 -16 -13
-17 -12 -4 4 13 16 21 21 21 13z"/>
<path d="M655 820 c-3 -5 -2 -10 4 -10 5 0 13 5 16 10 3 6 2 10 -4 10 -5 0
-13 -4 -16 -10z"/>
<path d="M754 745 c-21 -19 -34 -35 -29 -34 15 0 81 57 74 63 -3 4 -24 -9 -45
-29z"/>
<path d="M675 710 c-3 -5 -2 -10 4 -10 5 0 13 5 16 10 3 6 2 10 -4 10 -5 0
-13 -4 -16 -10z"/>
<path d="M640 620 c-9 -6 -10 -10 -3 -10 6 0 15 5 18 10 8 12 4 12 -15 0z"/>
<path d="M70 662 l-55 -3 5 -57 c4 -48 8 -57 25 -58 11 -1 25 -2 31 -3 6 -1
11 -46 12 -122 l2 -121 -43 3 -43 4 4 -65 c3 -36 5 -66 6 -67 4 -5 296 -4 303
0 4 3 7 34 5 70 -4 63 -5 66 -30 69 l-27 3 -2 154 c-2 85 -7 159 -12 164 -14
14 -123 32 -181 29z m14 -31 c3 -5 -2 -8 -12 -7 -9 0 -16 -5 -14 -12 1 -8 -2
-11 -8 -7 -8 5 -7 11 1 21 13 16 25 18 33 5z m76 6 c0 -1 -21 -20 -47 -41
l-48 -38 44 41 c40 38 51 46 51 38z m20 -11 c0 -2 -8 -10 -17 -17 -16 -13 -17
-12 -4 4 13 16 21 21 21 13z m36 -57 c-14 -11 -24 -24 -22 -28 3 -4 -2 -8 -10
-8 -10 0 -6 9 13 29 15 15 31 28 36 28 5 0 -2 -9 -17 -21z m-82 -35 c-19 -15
-19 -16 0 -9 19 6 19 5 1 -15 -10 -11 -23 -20 -29 -20 -6 0 -5 4 3 9 8 5 10
14 6 21 -4 7 -2 16 6 21 24 15 34 10 13 -7z m76 -29 c-26 -28 -17 -34 14 -8
12 9 4 -1 -17 -21 -21 -20 -35 -41 -32 -45 2 -5 -2 -14 -10 -21 -8 -7 -12 -16
-9 -21 3 -5 2 -9 -3 -8 -19 3 -27 -2 -14 -10 11 -7 9 -12 -10 -22 -22 -11 -23
-11 -10 4 7 10 10 17 5 17 -4 0 3 11 16 25 24 25 16 35 -10 13 -8 -7 -2 2 14
20 34 37 25 43 -13 10 l-26 -23 24 28 c14 15 30 26 37 25 7 -2 12 0 11 4 -2 7
43 58 51 58 3 0 -5 -11 -18 -25z m-59 -15 c-18 -17 -36 -30 -40 -30 -7 1 61
60 69 60 3 0 -10 -14 -29 -30z m89 -64 c0 -2 -11 -11 -24 -20 -19 -12 -27 -13
-32 -3 -4 6 -4 9 1 5 4 -4 17 -1 29 7 21 16 26 18 26 11z m-20 -77 c-21 -17
-22 -20 -5 -15 13 4 6 -6 -20 -31 -49 -47 -135 -113 -147 -113 -21 0 -1 19 72
70 44 30 80 59 80 63 0 5 -6 5 -12 1 -7 -4 -2 5 11 19 14 15 29 27 35 27 6 0
0 -10 -14 -21z m-129 -84 c8 5 3 -4 -10 -18 -14 -15 -32 -27 -40 -27 -13 1
-13 3 2 11 18 10 18 11 0 25 -15 12 -16 15 -4 23 10 7 18 5 26 -6 8 -10 17
-13 26 -8z m189 -9 c0 -2 -8 -10 -17 -17 -16 -13 -17 -12 -4 4 13 16 21 21 21
13z m-70 -9 c0 -2 -10 -12 -22 -23 l-23 -19 19 23 c18 21 26 27 26 19z m70
-21 c0 -2 -8 -10 -17 -17 -16 -13 -17 -12 -4 4 13 16 21 21 21 13z m-50 -10
c0 -2 -8 -10 -17 -17 -16 -13 -17 -12 -4 4 13 16 21 21 21 13z"/>
<path d="M40 266 c0 -2 7 -7 16 -10 8 -3 12 -2 9 4 -6 10 -25 14 -25 6z"/>
</g>
</svg>
